<svg width="313" height="237" xmlns="http://www.w3.org/2000/svg">
 <g>
  <title>Layer 1</title>
  <g fill="white" stroke="null" id="svg_11">
   <path stroke="null" id="svg_4" d="m303.41868,2.95437l-292.71564,0c-4.25208,0 -7.70304,3.45096 -7.70304,7.70304l0,173.31847c0,4.25208 3.45096,7.70304 7.70304,7.70304l292.71564,0c4.25208,0 7.70304,-3.45096 7.70304,-7.70304l0,-173.31847c0,-4.25208 -3.45096,-7.70304 -7.70304,-7.70304zm-7.70304,157.91238l-277.30955,0l0,-142.5063l277.30955,0l0,142.5063z"/>
   <rect stroke="null" transform="matrix(3.8515215252945776,0,0,3.8515215252945776,-651.273516942274,-409.1351065849303) " id="svg_5" height="12" width="18" y="153.99394" x="200.87404"/>
   <rect stroke="null" transform="matrix(3.8515215252945776,0,0,3.8515215252945776,-651.273516942274,-409.1351065849303) " id="svg_6" height="3" width="32" y="163.99394" x="193.87404"/>
   <g fill="white" stroke="null" transform="matrix(3.8515215252945776,0,0,3.8515215252945776,-651.273516942274,-409.1351065849303) " id="svg_7">
    <path stroke="null" id="svg_8" d="m202.19804,138.38094l-14.741,-6.547l0,-2.508l14.741,-7.377l0,4.33l-9.04,4.126l9.04,3.674l0,4.302z"/>
    <path stroke="null" id="svg_9" d="m216.44304,119.35294l-7.947,21.915l-5.045,0l7.947,-21.915l5.045,0z"/>
    <path stroke="null" id="svg_10" d="m217.55104,134.07894l9.041,-3.674l-9.041,-4.126l0,-4.33l14.741,7.377l0,2.508l-14.741,6.546l0,-4.301z"/>
   </g>
  </g>
 </g>
 <g>
  <title>background</title>
  <rect fill="none" id="canvas_background" height="386" width="635" y="-1" x="-1"/>
 </g>
</svg>