<svg width="633" height="384" xmlns="http://www.w3.org/2000/svg">

 <g>
  <title>background</title>
  <rect fill="none" id="canvas_background" height="602" width="802" y="-1" x="-1"/>
 </g>
 <g>
  <title>Layer 1</title>
  <g id="svg_13">
   <path fill="white" id="svg_4" d="m550.98348,3.93945l-468.74996,0a26.04166,26.04166 0 0 0 -26.04166,26.04166l0,277.77776a26.04166,26.04166 0 0 0 26.04166,26.04166l468.74996,0a26.04166,26.04166 0 0 0 26.04166,-26.04166l0,-277.77776a26.04166,26.04166 0 0 0 -26.04166,-26.04166zm8.68055,303.81942a8.68055,8.68055 0 0 1 -8.68055,8.68055l-468.74996,0a8.68055,8.68055 0 0 1 -8.68055,-8.68055l0,-277.77776a8.68055,8.68055 0 0 1 8.68055,-8.68055l468.74996,0a8.68055,8.68055 0 0 1 8.68055,8.68055l0,277.77776z"/>
   <path fill="white" id="svg_5" d="m4.10852,351.16165l624.99995,0a0,0 0 0 1 0,0l0,0a28.64583,28.64583 0 0 1 -28.64583,28.64583l-567.70829,0a28.64583,28.64583 0 0 1 -28.64583,-28.64583l0,0a0,0 0 0 1 0,0z"/>
   <rect fill="white" transform="matrix(17.361109786563475,0,0,17.361109786563475,0,0) " id="svg_6" height="6" width="12" y="3.22691" x="18.23665"/>
   <rect fill="white" transform="matrix(17.361109786563475,0,0,17.361109786563475,0,0) " id="svg_7" height="1" width="12" y="11.22691" x="18.23665"/>
   <rect fill="white" transform="matrix(17.361109786563475,0,0,17.361109786563475,0,0) " id="svg_8" height="1" width="12" y="13.22691" x="18.23665"/>
   <rect fill="white" transform="matrix(17.361109786563475,0,0,17.361109786563475,0,0) " id="svg_9" height="1" width="12" y="15.22691" x="18.23665"/>
   <path fill="white" id="svg_10" d="m108.27518,56.02278l0,225.69443l173.6111,0l0,-225.69443l-173.6111,0zm147.74304,15.27778l-60.9375,83.68055l-60.9375,-83.68055l121.87499,0zm-132.46527,13.54167l61.28472,84.20138l-61.28472,84.02777l0,-168.22915zm10.76389,181.59721l60.76388,-83.50694l60.76388,83.50694l-121.52777,0zm132.29166,-13.36805l-61.28472,-84.02777l61.28472,-84.20138l0,168.22915z"/>
  </g>
 </g>
</svg>