<svg width="8" height="8" viewBox="0 0 8 8" fill="none" xmlns="http://www.w3.org/2000/svg">
<path d="M3.80158 0.505283C3.83427 0.363697 4.02904 0.346659 4.08582 0.480415L4.91819 2.44138C4.99437 2.62083 5.17743 2.73083 5.37164 2.71384L7.49385 2.52817C7.6386 2.5155 7.71499 2.69547 7.60533 2.7908L5.99756 4.18841C5.85043 4.31631 5.80239 4.52441 5.87856 4.70386L6.71094 6.66482C6.76772 6.79858 6.62016 6.92685 6.49561 6.85201L4.66958 5.75482C4.50247 5.65441 4.28971 5.67302 4.14258 5.80092L2.53482 7.19853C2.42515 7.29386 2.25756 7.19317 2.29025 7.05158L2.76947 4.97587C2.81332 4.78592 2.72987 4.58933 2.56277 4.48892L0.736735 3.39173C0.612181 3.31689 0.656162 3.12639 0.800917 3.11372L2.92312 2.92805C3.11733 2.91106 3.27851 2.77095 3.32237 2.58099L3.80158 0.505283Z" fill="white" stroke="#666666" stroke-width="0.3"/>
</svg>
