<svg width="8" height="8" viewBox="0 0 8 8" fill="none" xmlns="http://www.w3.org/2000/svg">
<path d="M3.46927 0.237409C3.53465 -0.0457592 3.92418 -0.0798401 4.03773 0.187674L4.87011 2.14864C4.9209 2.26827 5.04294 2.3416 5.17241 2.33028L7.29462 2.14461C7.58413 2.11928 7.73691 2.47922 7.51758 2.66988L5.90981 4.06749C5.81173 4.15275 5.7797 4.29148 5.83048 4.41112L6.66286 6.37208C6.77641 6.6396 6.4813 6.89613 6.2322 6.74645L4.40616 5.64926C4.29476 5.58232 4.15292 5.59473 4.05483 5.68L2.44707 7.07761C2.22774 7.26827 1.89256 7.06688 1.95794 6.78371L2.43715 4.708C2.46639 4.58136 2.41076 4.4503 2.29935 4.38336L0.473322 3.28617C0.224215 3.13649 0.312175 2.75549 0.601686 2.73016L2.72389 2.54449C2.85336 2.53317 2.96082 2.43976 2.99006 2.31312L3.46927 0.237409Z" fill="#666666"/>
</svg>
